<svg width="420" height="260" viewBox="0 0 420 260" fill="none" xmlns="http://www.w3.org/2000/svg">
  <filter id="shadow" x="-20%" y="-20%" width="140%" height="140%">
    <feDropShadow dx="0" dy="12" stdDeviation="12" flood-color="#8a6c38" flood-opacity="0.16"/>
  </filter>
  <g filter="url(#shadow)">
    <path d="M190 215C176 184 162 150 146 107" stroke="#7f9c65" stroke-width="5" stroke-linecap="round"/>
    <path d="M210 217C206 177 202 141 198 91" stroke="#6f8d5a" stroke-width="5" stroke-linecap="round"/>
    <path d="M229 215C237 179 246 144 263 101" stroke="#7f9c65" stroke-width="5" stroke-linecap="round"/>
    <path d="M175 177C142 167 119 147 100 121" stroke="#88a96e" stroke-width="3.5" stroke-linecap="round"/>
    <path d="M247 175C281 161 306 139 322 109" stroke="#88a96e" stroke-width="3.5" stroke-linecap="round"/>
    <path d="M185 193C164 199 141 197 120 187" stroke="#9ab77a" stroke-width="3.5" stroke-linecap="round"/>
    <path d="M235 191C258 199 283 198 305 185" stroke="#9ab77a" stroke-width="3.5" stroke-linecap="round"/>

    <path d="M119 124C92 113 77 92 73 65C100 71 122 88 135 112C130 120 125 123 119 124Z" fill="#a8c58a" opacity="0.92"/>
    <path d="M96 185C74 164 66 138 72 112C96 126 112 149 118 176C111 183 105 186 96 185Z" fill="#8fb06f" opacity="0.9"/>
    <path d="M321 109C341 86 365 75 391 77C381 102 362 120 336 129C329 123 324 117 321 109Z" fill="#a8c58a" opacity="0.92"/>
    <path d="M307 186C329 166 357 158 383 165C367 188 342 203 314 206C309 200 306 193 307 186Z" fill="#8fb06f" opacity="0.9"/>
    <path d="M180 91C157 73 147 49 150 23C174 34 191 54 199 80C194 87 188 91 180 91Z" fill="#9ab77a" opacity="0.86"/>
    <path d="M246 101C256 73 277 55 303 47C304 75 293 100 270 118C260 114 252 108 246 101Z" fill="#9ab77a" opacity="0.86"/>

    <g>
      <ellipse cx="151" cy="101" rx="31" ry="25" fill="#fffdf3"/>
      <ellipse cx="137" cy="83" rx="21" ry="25" fill="#f7f1dc"/>
      <ellipse cx="164" cy="79" rx="21" ry="26" fill="#fffff8"/>
      <ellipse cx="176" cy="101" rx="23" ry="21" fill="#f4ecd4"/>
      <ellipse cx="151" cy="116" rx="24" ry="18" fill="#fff9e9"/>
      <circle cx="154" cy="97" r="10" fill="#d8b966"/>
      <circle cx="147" cy="101" r="3" fill="#b99545"/>
      <circle cx="159" cy="103" r="3" fill="#b99545"/>
    </g>

    <g>
      <ellipse cx="214" cy="75" rx="35" ry="27" fill="#fffdf5"/>
      <ellipse cx="198" cy="54" rx="22" ry="26" fill="#f3ead4"/>
      <ellipse cx="226" cy="50" rx="23" ry="28" fill="#fffffb"/>
      <ellipse cx="242" cy="74" rx="24" ry="22" fill="#f6eedb"/>
      <ellipse cx="213" cy="94" rx="27" ry="20" fill="#fff9e9"/>
      <circle cx="217" cy="74" r="11" fill="#d7b85f"/>
      <circle cx="211" cy="76" r="3" fill="#b28d3d"/>
      <circle cx="222" cy="79" r="3" fill="#b28d3d"/>
    </g>

    <g>
      <ellipse cx="264" cy="110" rx="30" ry="24" fill="#fffef6"/>
      <ellipse cx="251" cy="93" rx="19" ry="24" fill="#f4ecd8"/>
      <ellipse cx="276" cy="91" rx="20" ry="25" fill="#fffffb"/>
      <ellipse cx="287" cy="111" rx="21" ry="20" fill="#f6efdc"/>
      <ellipse cx="263" cy="126" rx="23" ry="18" fill="#fff9e9"/>
      <circle cx="266" cy="109" r="9" fill="#d7b85f"/>
    </g>

    <g opacity="0.96">
      <circle cx="118" cy="152" r="8" fill="#f8f6ea"/>
      <circle cx="132" cy="144" r="8" fill="#fffef7"/>
      <circle cx="145" cy="154" r="8" fill="#f2ead6"/>
      <circle cx="134" cy="162" r="6" fill="#dcc270"/>
      <circle cx="298" cy="146" r="8" fill="#f8f6ea"/>
      <circle cx="313" cy="138" r="8" fill="#fffef7"/>
      <circle cx="326" cy="149" r="8" fill="#f2ead6"/>
      <circle cx="315" cy="157" r="6" fill="#dcc270"/>
      <circle cx="182" cy="145" r="7" fill="#fffef7"/>
      <circle cx="197" cy="139" r="7" fill="#f8f6ea"/>
      <circle cx="209" cy="150" r="7" fill="#f2ead6"/>
    </g>
  </g>
</svg>
